<?xml version="1.0" standalone="no"?>
<!DOCTYPE svg PUBLIC "-//W3C//DTD SVG 20010904//EN"
 "http://www.w3.org/TR/2001/REC-SVG-20010904/DTD/svg10.dtd">
<svg version="1.0" xmlns="http://www.w3.org/2000/svg"
 width="450.000000pt" height="450.000000pt" viewBox="0 0 450.000000 450.000000"
 preserveAspectRatio="xMidYMid meet">
<metadata>
Created by potrace 1.11, written by Peter Selinger 2001-2013
</metadata>
<g transform="translate(0.000000,450.000000) scale(0.100000,-0.100000)"
fill="#000000" stroke="none">
<path d="M0 2250 l0 -2250 2250 0 2250 0 0 2250 0 2250 -2250 0 -2250 0 0
-2250z m805 2064 c44 -21 68 -58 68 -108 0 -79 -95 -125 -148 -71 -29 28 -32
57 -9 79 19 20 28 20 44 2 9 -12 8 -17 -9 -28 -25 -16 -10 -38 27 -38 33 0 62
27 62 57 0 36 -51 83 -90 83 -43 0 -90 -47 -90 -90 0 -83 57 -121 214 -144 59
-9 112 -13 117 -10 5 3 9 0 9 -5 0 -6 18 -23 41 -38 22 -14 47 -39 55 -55 8
-16 19 -26 24 -23 6 4 10 -6 10 -22 0 -15 3 -39 7 -52 6 -23 7 -23 14 -5 11
28 11 102 -1 123 -5 10 -30 24 -55 31 -37 10 -65 33 -65 52 0 2 18 3 41 3 22
0 43 3 45 7 3 5 -4 22 -16 38 -23 33 -49 37 -109 20 -22 -6 -40 -6 -52 1 -27
14 -24 27 8 35 23 6 24 8 10 19 -9 6 -25 33 -36 58 -11 26 -26 47 -33 47 -9 0
-9 3 2 10 26 17 57 11 88 -15 l31 -26 15 23 c9 12 16 30 16 40 0 28 15 21 44
-20 28 -41 33 -76 15 -115 -9 -20 -5 -35 28 -98 35 -69 38 -80 38 -159 0 -47
-3 -101 -7 -120 -4 -19 -5 -28 -2 -20 4 8 13 30 21 49 9 24 17 31 24 24 15
-15 -15 -110 -53 -167 -37 -57 -45 -55 -18 5 11 24 20 51 20 59 0 8 -11 -11
-24 -43 -13 -32 -30 -65 -37 -75 -13 -15 -12 -16 4 -3 20 15 23 2 5 -19 -7 -8
2 -1 20 15 46 41 78 99 93 168 14 66 34 91 47 58 7 -19 12 -16 65 35 64 62 73
93 32 120 -29 19 -65 10 -65 -17 0 -20 24 -26 35 -9 8 13 25 3 25 -15 0 -19
-34 -37 -55 -29 -22 9 -35 45 -23 67 13 25 53 38 82 27 l25 -9 -15 41 c-20 58
-18 93 11 125 l24 28 1 -24 c0 -13 12 -44 26 -69 21 -35 25 -53 21 -88 l-4
-43 39 20 c22 11 68 24 102 28 33 5 47 9 29 10 -21 1 -38 10 -52 27 -25 32
-29 63 -6 44 8 -6 41 -17 73 -24 l59 -12 -12 30 c-9 22 -10 38 -3 56 10 24 11
24 32 -22 22 -50 33 -55 69 -37 19 10 18 7 -5 -18 -25 -26 -37 -53 -23 -53 2
0 27 9 54 20 74 29 94 15 29 -21 -60 -32 -86 -35 -114 -14 -10 8 -28 14 -39
14 -12 1 -1 -8 25 -20 25 -11 56 -30 69 -42 18 -16 23 -18 18 -6 -5 14 4 18
48 24 60 7 76 1 119 -44 25 -26 27 -31 12 -37 -9 -4 -33 -4 -52 -1 -40 7 -38
-7 3 -18 33 -8 53 -23 53 -40 0 -9 -11 -10 -42 -3 -57 11 -60 12 -83 25 -19
10 -20 8 -17 -32 2 -25 -3 -55 -12 -73 -20 -38 -71 -78 -110 -85 -73 -13 -155
42 -176 119 -11 38 -15 42 -31 34 -10 -6 -31 -11 -46 -12 -15 -1 -38 -10 -50
-21 -17 -15 -25 -17 -42 -8 -25 14 -27 34 -6 51 21 18 12 23 -17 10 -23 -11
-78 -86 -78 -109 0 -14 -2 -14 52 5 51 17 129 16 135 -3 3 -7 -18 -16 -54 -23
l-57 -12 32 -17 c41 -21 72 -67 72 -106 0 -23 3 -27 10 -15 15 23 12 -60 -3
-89 -19 -37 -46 -50 -58 -28 -8 14 -18 17 -39 12 -47 -10 -94 17 -119 68 -25
51 -18 84 21 111 32 23 62 20 97 -10 56 -47 26 -120 -46 -112 -31 4 -33 3 -17
-9 50 -36 124 6 124 71 0 25 -9 45 -29 68 -27 30 -34 33 -89 33 l-60 0 -70
-67 c-39 -38 -74 -68 -79 -68 -8 0 1 -96 13 -137 3 -13 143 -87 204 -108 20
-7 46 -9 63 -4 29 8 39 -7 11 -18 -15 -6 -15 -7 1 -19 17 -12 16 -14 -9 -24
-15 -5 -37 -10 -49 -10 -30 0 -126 47 -222 108 l-80 51 -6 -52 c-15 -129 -72
-219 -177 -280 -46 -26 -62 -43 -84 -87 -16 -29 -28 -47 -28 -39 0 8 9 31 19
52 10 20 15 37 11 37 -12 0 -50 -95 -50 -125 0 -17 15 -42 45 -74 50 -54 53
-61 26 -61 -10 0 -29 16 -42 35 -13 19 -27 35 -30 35 -3 0 -12 -11 -19 -25 -7
-14 -20 -25 -28 -25 -10 0 -12 4 -4 13 5 6 12 40 14 75 3 43 11 71 26 92 13
17 20 30 17 30 -13 0 -71 -33 -92 -53 -23 -20 -33 -54 -13 -42 6 4 18 4 27 1
14 -6 13 -10 -7 -31 -27 -28 -17 -34 13 -7 19 17 20 16 8 -6 -15 -29 -41 -25
-59 8 -12 24 -12 23 -6 -12 7 -45 -2 -78 -23 -78 -9 0 -13 3 -10 6 7 8 -33 84
-44 84 -15 0 -82 -85 -101 -128 -25 -56 -21 -140 8 -179 39 -51 71 -68 133
-68 48 0 64 5 95 29 45 34 61 65 52 101 -7 29 -28 41 -54 30 -16 -8 -16 -8 1
-12 26 -7 15 -27 -16 -31 -18 -2 -27 -10 -29 -25 -5 -34 -49 -51 -90 -34 -44
18 -59 38 -65 87 -5 36 -2 43 30 74 19 18 50 36 68 40 103 20 210 -85 180
-177 -7 -19 -25 -46 -41 -62 -22 -21 -27 -32 -19 -41 11 -14 4 -34 -12 -34 -5
0 -9 6 -9 14 0 12 -13 14 -67 10 -55 -5 -75 -2 -105 14 -21 11 -38 18 -38 16
0 -3 9 -23 21 -45 20 -41 23 -90 4 -96 -19 -5 -58 104 -52 143 4 20 4 35 2 32
-14 -14 -55 -102 -55 -119 0 -10 -4 -19 -9 -19 -14 0 -33 67 -26 89 3 12 0 21
-11 25 -11 4 -14 13 -10 31 5 20 0 28 -30 49 l-37 25 27 7 c14 3 35 4 45 1 16
-4 18 2 17 63 -1 62 1 67 16 59 22 -12 30 -41 26 -98 -2 -24 2 -45 7 -47 6 -3
9 18 7 53 -3 50 1 68 30 123 l33 65 -41 0 c-28 0 -55 10 -92 34 -35 22 -58 31
-72 26 -31 -10 -24 1 17 30 50 33 79 32 143 -10 65 -41 82 -44 50 -11 -37 40
-26 96 22 112 39 12 75 -45 46 -74 -17 -17 -48 -15 -48 3 0 8 7 15 16 15 9 0
14 6 12 13 -6 17 -29 15 -41 -5 -14 -21 16 -58 46 -58 11 0 59 21 106 48 75
41 82 47 59 50 -29 3 -37 17 -15 25 6 2 -23 9 -66 15 -87 13 -159 46 -217 99
-39 35 -42 35 -100 29 -63 -7 -93 1 -109 33 -9 15 -7 17 13 14 13 -3 33 0 45
7 l22 11 -21 33 c-20 33 -28 96 -11 96 5 0 15 -7 22 -16 8 -9 31 -27 51 -40
23 -15 38 -32 38 -44 0 -11 6 -20 14 -20 15 0 26 21 26 51 0 24 16 25 30 0 7
-14 6 -31 -5 -61 -21 -59 -19 -72 13 -103 27 -26 106 -66 130 -67 19 0 14 24
-8 38 -12 7 -19 16 -16 21 3 4 -13 25 -34 46 -25 24 -36 41 -29 46 17 10 13
230 -4 271 -32 74 -102 106 -150 67 -41 -31 -50 -62 -32 -105 13 -33 18 -35
52 -33 40 3 66 16 58 29 -3 5 -13 6 -23 3 -47 -12 -56 65 -9 81 42 15 81 -18
85 -74 4 -49 -13 -74 -64 -90 -69 -23 -154 50 -154 133 0 34 6 46 40 79 46 43
88 50 143 23 43 -20 94 -98 107 -162 l12 -53 24 30 c36 42 91 73 154 86 l55
11 -40 13 c-160 52 -306 168 -340 269 -55 167 50 343 213 358 l60 6 5 40 c7
49 31 84 77 108 42 23 72 24 115 3z m2655 -2 c0 -10 7 -28 16 -40 l15 -23 31
26 c31 26 62 32 88 15 11 -7 11 -10 2 -10 -7 0 -22 -21 -33 -47 -11 -25 -27
-52 -36 -58 -14 -11 -13 -13 10 -19 32 -8 35 -21 8 -35 -12 -7 -30 -7 -52 -1
-60 17 -86 13 -109 -20 -12 -16 -19 -33 -16 -38 2 -4 23 -7 45 -7 23 0 41 -1
41 -3 0 -19 -28 -42 -65 -52 -25 -7 -50 -21 -55 -31 -11 -20 -13 -82 -3 -118
6 -23 7 -23 14 -5 4 10 8 34 8 52 1 18 5 31 11 27 5 -3 16 7 24 23 8 16 31 39
51 51 19 11 38 27 41 36 3 8 10 13 14 10 4 -3 57 2 116 11 157 23 214 61 214
144 0 43 -47 90 -90 90 -38 0 -90 -47 -90 -81 0 -49 70 -80 100 -44 10 12 10
15 -3 15 -19 0 -29 24 -14 39 15 15 23 14 41 -5 23 -22 20 -51 -9 -79 -33 -34
-76 -33 -116 3 -57 51 -38 141 38 177 85 41 193 -31 193 -128 0 -22 5 -25 61
-30 82 -7 159 -58 197 -131 23 -44 27 -63 27 -136 0 -75 -3 -91 -27 -131 -52
-89 -188 -185 -323 -229 l-40 -13 55 -11 c63 -13 118 -44 154 -86 l24 -30 12
53 c13 64 64 142 107 162 55 27 97 20 143 -23 34 -33 40 -45 40 -79 0 -83 -85
-156 -154 -133 -51 16 -68 41 -64 90 4 56 43 89 85 74 47 -16 38 -93 -9 -81
-10 3 -20 2 -23 -3 -8 -13 18 -26 58 -29 34 -2 39 0 52 34 14 32 14 39 0 69
-18 39 -62 61 -97 51 -34 -11 -76 -54 -89 -92 -14 -44 -14 -253 0 -262 7 -4
-5 -22 -29 -46 -21 -21 -37 -42 -34 -46 3 -5 -4 -14 -16 -21 -22 -14 -27 -38
-7 -38 23 1 102 41 130 67 31 30 34 55 12 107 -12 27 -13 42 -5 56 14 25 30
26 30 1 0 -30 11 -51 26 -51 8 0 14 9 14 20 0 12 15 29 38 44 20 13 43 31 51
40 7 9 17 16 22 16 17 0 9 -63 -11 -96 l-21 -33 22 -11 c12 -7 32 -10 45 -7
20 3 22 1 13 -14 -16 -32 -46 -40 -109 -33 -58 6 -61 6 -100 -29 -58 -53 -130
-86 -217 -99 -43 -6 -72 -13 -65 -15 21 -8 13 -22 -15 -25 -24 -3 -17 -9 58
-50 47 -27 95 -48 106 -48 30 0 60 37 46 58 -12 20 -35 22 -40 5 -3 -7 2 -13
11 -13 9 0 16 -7 16 -15 0 -18 -31 -20 -48 -3 -29 29 7 86 46 74 48 -16 59
-72 22 -112 -32 -33 -15 -30 50 11 64 42 93 43 143 10 41 -29 48 -40 17 -30
-14 5 -37 -4 -72 -26 -37 -24 -64 -34 -92 -34 l-41 0 33 -65 c29 -55 33 -73
30 -123 -2 -31 0 -57 3 -57 12 0 18 30 13 60 -8 39 2 77 24 89 16 8 17 3 15
-59 -1 -62 0 -67 18 -63 10 3 31 2 45 -1 l27 -7 -37 -25 c-30 -21 -35 -29 -30
-49 4 -18 1 -27 -10 -31 -11 -4 -14 -13 -11 -25 7 -22 -12 -89 -26 -89 -5 0
-9 9 -9 19 0 17 -41 105 -55 119 -2 3 -2 -12 2 -32 6 -39 -33 -148 -52 -143
-19 6 -16 55 4 96 12 22 21 42 21 45 0 2 -17 -5 -37 -16 -31 -16 -51 -19 -105
-14 -55 4 -68 2 -68 -10 0 -8 -4 -14 -9 -14 -16 0 -23 20 -12 34 8 9 3 20 -19
41 -16 16 -34 43 -41 62 -30 92 77 197 180 177 45 -9 101 -64 101 -98 0 -71
-73 -130 -128 -104 -15 7 -28 23 -30 35 -2 15 -11 23 -29 25 -31 4 -42 24 -16
31 17 4 17 4 0 12 -25 11 -46 -1 -53 -30 -9 -36 7 -67 52 -101 31 -24 47 -29
95 -29 62 0 94 17 133 69 27 36 29 145 3 194 -19 36 -85 112 -96 112 -11 0
-51 -76 -44 -84 3 -3 -1 -6 -10 -6 -21 0 -30 33 -23 78 6 35 6 36 -6 12 -18
-33 -44 -37 -59 -8 -12 22 -11 23 8 6 30 -27 40 -21 13 7 -20 21 -21 25 -7 31
9 3 21 3 27 -1 20 -12 10 22 -12 42 -22 20 -80 53 -93 53 -3 0 4 -13 17 -30
15 -21 23 -49 26 -92 2 -35 9 -69 14 -75 8 -10 6 -13 -6 -13 -9 0 -22 11 -28
25 -15 32 -19 32 -46 -10 -13 -21 -30 -35 -42 -35 -28 0 -26 7 25 61 30 32 45
57 45 74 0 32 -39 125 -52 125 -5 0 -2 -10 6 -22 9 -12 16 -29 16 -38 0 -8
-10 3 -23 24 -14 26 -41 51 -79 73 -106 62 -162 151 -177 280 l-6 52 -80 -51
c-96 -61 -192 -108 -222 -108 -12 0 -34 5 -49 10 -25 10 -26 12 -9 24 16 12
16 13 1 19 -28 11 -18 26 12 18 16 -5 42 -3 62 4 61 21 201 95 204 108 11 39
21 137 13 137 -4 0 -42 32 -83 71 l-75 71 -56 -4 c-48 -4 -61 -10 -85 -37 -37
-41 -38 -92 -3 -126 27 -28 71 -33 99 -12 16 12 14 13 -17 9 -72 -8 -102 65
-46 112 35 30 65 33 97 10 39 -27 46 -60 21 -111 -25 -51 -72 -78 -119 -68
-21 5 -31 2 -39 -12 -12 -22 -39 -9 -58 28 -15 29 -18 112 -3 89 7 -12 10 -8
10 15 0 39 31 85 72 106 l32 17 -57 12 c-36 7 -57 16 -54 23 6 19 84 20 135 3
54 -19 52 -19 52 -5 0 23 -55 98 -78 109 -29 13 -38 8 -17 -10 21 -17 19 -37
-6 -51 -17 -9 -25 -7 -42 8 -12 11 -35 20 -50 21 -15 1 -36 6 -46 12 -16 8
-20 4 -31 -34 -21 -77 -103 -132 -176 -119 -39 7 -90 47 -110 85 -9 18 -14 48
-12 73 3 40 2 42 -17 32 -23 -13 -26 -14 -82 -25 -32 -7 -43 -6 -43 3 0 17 20
32 53 40 41 11 43 25 3 18 -19 -3 -43 -3 -52 1 -15 6 -13 11 12 37 43 45 59
51 119 44 44 -6 53 -10 48 -24 -5 -12 0 -10 18 6 13 12 44 31 69 42 26 12 37
21 25 20 -11 0 -29 -6 -39 -14 -28 -21 -54 -18 -114 14 -65 36 -45 50 29 21
27 -11 52 -20 54 -20 14 0 2 27 -22 53 -24 25 -25 28 -6 18 36 -18 47 -13 69
37 21 46 22 46 32 22 7 -18 6 -34 -3 -56 l-12 -30 59 12 c32 7 65 18 73 24 23
19 19 -12 -6 -44 -14 -17 -31 -26 -52 -27 -18 -1 -4 -5 29 -10 34 -4 80 -17
102 -28 l39 -20 -4 43 c-4 35 0 53 21 88 14 25 26 56 26 69 l1 24 24 -28 c29
-32 31 -67 11 -125 l-15 -41 26 10 c38 14 77 -8 81 -48 4 -39 -25 -60 -58 -43
-21 11 -27 35 -10 45 6 3 10 1 10 -4 0 -6 9 -11 20 -11 27 0 27 37 0 45 -30 9
-70 -20 -70 -50 0 -16 18 -42 57 -79 53 -51 58 -54 65 -35 13 33 33 8 47 -58
15 -69 47 -127 93 -168 18 -16 27 -23 21 -15 -19 21 -16 34 5 19 15 -13 16
-12 3 3 -7 10 -24 43 -37 75 -13 32 -24 51 -24 43 0 -8 9 -35 20 -59 27 -60
19 -62 -18 -5 -38 57 -68 152 -53 167 7 7 15 0 24 -24 8 -19 17 -41 21 -49 3
-8 2 1 -2 20 -4 19 -7 74 -7 121 0 80 3 90 38 159 33 62 37 77 28 97 -18 39
-13 74 15 115 29 41 44 48 44 20z m-1594 -518 l-6 -23 25 25 c25 25 45 25 45
-1 0 -20 -40 -55 -63 -55 -11 0 -26 -8 -33 -17 -10 -14 -15 -15 -24 -6 -9 8
-7 14 10 23 13 7 18 15 13 19 -14 8 14 74 28 65 6 -3 8 -17 5 -30z m802 -6 c9
-22 9 -28 -1 -28 -6 0 -1 -9 12 -19 18 -14 21 -20 11 -26 -8 -5 -18 -2 -25 8
-7 10 -21 17 -32 17 -23 0 -63 35 -63 55 0 26 20 26 46 0 22 -22 25 -23 19 -5
-7 22 3 47 14 33 4 -4 12 -20 19 -35z m-754 -99 c14 -17 26 -34 26 -39 0 -5
12 -23 27 -41 l28 -32 -40 6 c-44 7 -95 53 -95 86 0 11 -3 26 -6 35 -11 29 33
18 60 -15z m732 15 c-3 -9 -6 -24 -6 -35 0 -32 -51 -79 -93 -86 l-37 -6 36 54
c49 74 64 89 87 89 13 0 17 -5 13 -16z m-1179 -26 c17 -14 17 -48 -1 -48 -12
0 -66 60 -66 74 0 7 51 -12 67 -26z m1608 -12 c-31 -41 -58 -48 -53 -13 3 20
65 63 76 52 2 -2 -8 -20 -23 -39z m-1491 23 c14 -7 23 -16 20 -20 -9 -15 -71
-10 -77 5 -11 27 15 34 57 15z m253 -23 c19 -41 13 -73 -23 -115 -32 -38 -42
-39 -54 -5 -9 22 -6 34 15 70 14 23 25 52 25 63 0 32 18 25 37 -13z m863 13
c0 -11 11 -40 25 -63 21 -36 24 -48 15 -70 -12 -34 -22 -33 -54 5 -36 42 -42
74 -23 115 19 38 37 45 37 13z m273 15 c14 -14 -7 -34 -37 -34 -43 0 -52 11
-24 27 25 13 51 17 61 7z m-1222 -53 c-28 -54 -61 -65 -134 -46 -32 8 -70 15
-85 15 l-27 1 24 19 c17 15 39 20 85 21 33 0 79 6 101 14 57 19 57 19 36 -24z
m1033 24 c27 -8 75 -15 106 -15 43 0 64 -5 81 -20 l24 -19 -27 -1 c-15 0 -53
-7 -85 -15 -73 -19 -106 -8 -134 46 -11 22 -18 39 -17 39 2 0 25 -7 52 -15z
m-436 -312 c200 -322 279 -544 243 -688 -6 -25 -52 -140 -101 -255 -91 -213
-147 -366 -152 -416 -3 -26 0 -29 26 -29 29 0 31 3 56 90 88 300 267 558 445
641 68 32 155 32 228 0 107 -47 174 -133 203 -263 15 -67 15 -79 -1 -154 -16
-80 -45 -170 -65 -199 -9 -13 -12 -13 -20 1 -37 62 -108 142 -152 171 -47 29
-62 33 -134 36 -105 5 -165 -19 -230 -91 -39 -44 -124 -196 -124 -223 0 -5 15
-14 32 -19 40 -12 64 -51 54 -88 -7 -31 -51 -57 -97 -57 l-31 0 4 -87 c5 -106
24 -148 75 -170 56 -23 97 -10 153 48 56 58 58 55 67 -57 7 -90 -9 -160 -49
-208 -40 -49 -82 -69 -146 -69 -134 0 -217 143 -244 421 l-12 123 -36 -3 -35
-3 2 -104 c2 -95 6 -115 53 -250 55 -161 58 -187 31 -246 -20 -45 -116 -155
-135 -155 -20 0 -125 115 -141 154 -24 57 -18 116 21 218 46 121 64 203 64
306 l0 82 -39 0 -38 0 -7 -91 c-15 -198 -70 -361 -141 -415 -96 -73 -220 -39
-281 76 -14 26 -19 57 -19 125 0 50 4 103 8 119 l8 28 48 -50 c57 -59 98 -72
154 -49 51 22 70 64 75 168 l4 86 -42 6 c-80 10 -110 78 -56 124 15 13 34 23
42 23 21 0 18 16 -25 104 -49 102 -106 167 -176 201 -48 24 -64 27 -137 24
-74 -4 -89 -8 -136 -37 -44 -29 -115 -109 -152 -171 -8 -14 -11 -14 -20 -1
-20 29 -49 119 -65 199 -16 75 -16 87 -1 154 40 177 164 287 325 287 200 0
440 -290 551 -665 25 -87 27 -90 58 -93 27 -3 32 0 32 17 0 39 -62 214 -142
399 -113 263 -119 283 -119 377 0 96 32 197 110 354 88 174 224 387 241 376 4
-3 44 -62 88 -132z m-1438 -353 c11 -11 20 -25 20 -31 0 -5 5 -7 11 -3 8 4 9
-1 4 -16 -5 -15 -4 -20 4 -16 17 11 13 -24 -9 -71 l-19 -43 29 0 c62 0 62 -12
-1 -41 -33 -16 -71 -29 -82 -29 -25 1 -96 61 -123 105 l-18 30 26 -23 c27 -25
98 -42 98 -24 0 6 -12 19 -26 30 -19 13 -29 31 -34 65 -4 25 -3 44 2 41 4 -3
8 2 8 11 0 34 80 45 110 15z m2764 10 c14 -5 26 -17 26 -25 0 -9 4 -14 8 -11
5 3 6 -16 2 -41 -5 -34 -15 -52 -34 -65 -14 -11 -26 -24 -26 -30 0 -18 71 -1
98 24 l26 23 -18 -30 c-27 -44 -98 -104 -123 -105 -11 0 -49 13 -82 29 -63 29
-63 41 -1 41 l29 0 -19 43 c-22 47 -26 82 -9 71 8 -4 9 1 4 16 -5 15 -4 20 4
16 6 -4 11 -2 11 3 0 18 39 51 59 51 11 0 31 -4 45 -10z m-2868 -302 c-3 -13
-6 -58 -6 -100 0 -89 -17 -118 -70 -118 -35 0 -36 2 -11 38 11 16 22 54 26 92
6 62 31 110 58 110 5 0 7 -10 3 -22z m2922 0 c14 -16 23 -42 27 -88 4 -38 15
-76 26 -92 25 -36 24 -38 -11 -38 -53 0 -70 29 -70 118 0 42 -3 87 -6 100 -4
12 -2 22 3 22 5 0 19 -10 31 -22z m-2849 -222 c24 -13 23 -14 -43 -51 -74 -41
-96 -41 -143 0 l-28 24 46 1 c26 0 66 9 90 20 52 23 48 23 78 6z m2821 -6 c28
-11 70 -20 93 -20 l42 -1 -28 -24 c-47 -41 -69 -41 -143 0 -66 37 -67 38 -43
51 13 7 25 13 26 14 1 0 25 -9 53 -20z m-3095 -39 c19 -8 19 -8 0 -19 -19 -11
-19 -11 3 -12 12 0 22 -4 22 -8 0 -17 -49 -54 -66 -50 -27 5 -29 35 -4 43 l22
7 -21 15 c-12 8 -21 18 -21 24 0 11 37 11 65 0z m3355 0 c0 -6 -9 -16 -21 -24
l-21 -15 22 -7 c26 -8 23 -39 -5 -43 -12 -2 -32 9 -50 28 l-29 30 30 0 c26 1
27 2 9 12 -19 11 -19 11 0 19 28 11 65 11 65 0z m-3249 -48 c41 -27 69 -68 69
-99 0 -16 -1 -16 -18 -1 -10 9 -38 27 -63 40 -36 19 -45 29 -47 55 -4 39 6 40
59 5z m3137 -5 c-2 -26 -11 -36 -47 -55 -25 -13 -53 -31 -63 -40 -17 -15 -18
-15 -18 3 1 31 25 66 66 96 52 37 66 36 62 -4z m-3078 -219 c-12 -29 -86 -89
-110 -89 -7 0 -10 13 -8 32 2 26 11 36 48 55 25 13 52 31 60 39 20 20 25 1 10
-37z m3031 -2 c36 -19 45 -29 47 -55 4 -39 -6 -40 -59 -5 -41 27 -69 68 -69
99 0 16 1 16 18 1 10 -9 38 -27 63 -40z m-3343 -50 c2 -14 -6 -44 -17 -66 -12
-22 -21 -42 -21 -45 0 -2 17 5 38 16 30 16 50 19 105 14 54 -4 67 -2 67 10 0
8 4 14 9 14 16 0 23 -20 12 -34 -8 -9 -3 -20 19 -41 61 -58 60 -133 -1 -195
-60 -59 -145 -61 -206 -4 -32 31 -35 38 -30 74 6 49 21 69 65 87 41 17 85 0
90 -34 2 -15 11 -23 29 -25 31 -4 42 -24 16 -31 -17 -4 -17 -4 0 -12 25 -11
46 1 53 30 9 36 -7 67 -52 101 -31 24 -47 29 -95 29 -62 0 -94 -17 -133 -68
-29 -39 -33 -123 -8 -179 19 -43 86 -128 101 -128 11 0 51 76 44 84 -3 3 1 6
10 6 21 0 30 -33 23 -78 -6 -35 -6 -36 6 -12 18 33 44 37 59 8 12 -22 11 -23
-8 -5 -29 26 -40 21 -14 -7 23 -25 15 -43 -14 -32 -23 8 -18 -18 8 -41 21 -20
79 -53 92 -53 3 0 -4 13 -17 30 -15 21 -23 49 -26 92 -2 35 -9 69 -14 76 -8 9
-6 12 6 12 9 0 22 -11 28 -25 6 -14 14 -25 17 -25 3 0 17 16 30 35 13 19 32
35 42 35 27 0 24 -7 -26 -61 -30 -32 -45 -57 -45 -74 0 -30 38 -125 50 -125 4
0 -1 17 -11 37 -10 21 -19 44 -19 52 0 8 12 -10 28 -39 22 -44 38 -61 84 -87
105 -61 162 -151 177 -280 l6 -52 70 46 c88 57 202 113 232 113 12 0 34 -5 49
-10 25 -10 26 -12 9 -24 -16 -12 -16 -13 -1 -19 28 -11 18 -26 -11 -18 -17 5
-43 3 -63 -4 -61 -21 -201 -95 -204 -108 -12 -41 -21 -137 -13 -137 5 0 40
-30 79 -67 l70 -68 60 0 c55 0 62 3 89 33 20 23 29 43 29 68 0 65 -74 107
-124 71 -16 -12 -14 -13 17 -9 41 5 77 -24 77 -62 0 -29 -52 -76 -84 -76 -31
0 -72 34 -80 65 -16 62 70 144 134 130 21 -5 31 -2 39 12 12 22 39 9 58 -28
15 -29 18 -112 3 -89 -7 12 -10 8 -10 -15 0 -39 -31 -85 -72 -106 l-32 -17 57
-12 c36 -7 57 -16 54 -23 -6 -19 -84 -20 -135 -3 -54 19 -52 19 -52 5 0 -23
55 -98 78 -109 29 -13 38 -8 17 10 -21 17 -19 37 6 51 17 9 25 7 42 -8 12 -11
35 -20 50 -21 15 -1 36 -6 46 -12 16 -8 20 -4 31 34 15 54 62 101 114 115 48
13 81 6 124 -26 44 -33 65 -76 60 -128 -3 -40 -2 -42 17 -32 23 13 26 14 83
25 31 7 42 6 42 -3 0 -17 -20 -32 -53 -40 -41 -11 -43 -25 -3 -18 19 3 43 3
52 -1 15 -6 13 -11 -12 -37 -43 -45 -59 -51 -119 -44 -43 6 -52 10 -47 23 4
10 -6 7 -29 -11 -19 -14 -50 -33 -69 -41 -24 -10 -29 -15 -15 -15 11 0 29 6
39 14 28 21 54 18 114 -14 65 -36 45 -50 -29 -21 -27 11 -52 20 -54 20 -14 0
-2 -27 23 -53 23 -25 24 -28 5 -18 -36 18 -47 13 -69 -37 -21 -46 -22 -46 -32
-22 -7 18 -6 34 3 56 l12 30 -59 -12 c-32 -7 -65 -18 -73 -24 -23 -19 -19 12
6 44 14 17 31 26 52 27 18 1 4 5 -29 10 -34 4 -80 17 -102 28 l-39 20 4 -43
c4 -35 0 -53 -21 -88 -14 -25 -26 -56 -26 -69 l-1 -24 -24 28 c-29 32 -31 67
-11 125 l15 41 -25 -9 c-36 -14 -42 -13 -69 14 -27 27 -24 60 6 77 34 18 81
-26 49 -46 -5 -3 -10 -1 -10 4 0 6 -9 11 -20 11 -27 0 -27 -37 0 -45 30 -9 70
20 70 50 0 16 -18 42 -57 79 -53 51 -58 54 -65 35 -13 -33 -33 -8 -47 58 -15
69 -47 127 -93 168 -18 16 -27 23 -20 15 18 -21 15 -34 -5 -19 -16 13 -17 12
-4 -3 7 -10 24 -43 37 -75 13 -32 24 -51 24 -43 0 8 -9 35 -20 59 -28 60 -19
62 19 3 39 -61 67 -150 52 -165 -7 -7 -15 0 -24 24 -8 19 -17 41 -21 49 -3 8
-2 -1 2 -20 4 -19 7 -74 7 -121 0 -80 -3 -90 -38 -159 -33 -62 -37 -77 -28
-97 18 -39 13 -74 -15 -115 -29 -41 -44 -48 -44 -20 0 10 -7 28 -16 40 l-15
23 -31 -26 c-31 -26 -62 -32 -88 -15 -11 7 -11 10 -2 10 7 0 22 21 33 47 11
25 27 52 36 58 14 11 13 13 -10 19 -32 8 -35 21 -8 35 12 7 30 7 52 1 60 -17
86 -13 109 20 12 16 19 33 16 38 -2 4 -23 7 -45 7 -23 0 -41 1 -41 3 0 19 28
42 65 52 25 7 50 21 55 31 11 20 13 82 3 118 -6 23 -7 23 -14 5 -4 -10 -8 -34
-8 -52 -1 -18 -5 -31 -11 -27 -5 3 -16 -7 -24 -23 -8 -16 -33 -41 -55 -55 -23
-15 -41 -32 -41 -38 0 -5 -4 -8 -9 -5 -18 11 -226 -26 -264 -47 -72 -40 -89
-117 -38 -168 40 -39 82 -39 122 1 37 37 36 74 -3 103 -26 19 -28 19 -53 3
l-27 -18 21 -15 c17 -12 20 -18 10 -29 -15 -18 -24 -18 -43 2 -23 22 -20 51 9
79 33 34 76 33 116 -3 57 -51 38 -141 -38 -177 -85 -41 -193 31 -193 128 0 22
-5 25 -61 30 -165 15 -269 190 -214 358 34 101 180 217 340 269 l40 13 -55 11
c-63 13 -118 44 -154 86 l-24 30 -12 -53 c-13 -64 -64 -142 -107 -162 -55 -27
-97 -20 -143 23 -34 33 -40 45 -40 79 0 51 33 102 83 126 42 21 71 18 111 -14
23 -18 27 -27 24 -67 -4 -58 -42 -92 -85 -76 -47 16 -38 93 9 81 10 -3 20 -2
23 3 8 13 -18 26 -58 29 -34 2 -39 0 -52 -33 -18 -42 -9 -74 31 -105 34 -27
53 -27 95 2 56 37 70 78 70 212 1 75 -3 120 -10 124 -7 5 4 22 29 46 21 21 37
42 34 46 -3 5 4 14 16 21 22 14 27 38 8 38 -24 -1 -103 -41 -130 -67 -32 -30
-35 -55 -13 -107 12 -27 13 -42 5 -56 -14 -25 -30 -26 -30 -1 0 30 -11 51 -26
51 -8 0 -14 -9 -14 -20 0 -12 -15 -29 -38 -44 -20 -13 -43 -31 -51 -40 -7 -9
-17 -16 -22 -16 -17 0 -9 63 11 96 l21 33 -22 11 c-12 7 -32 10 -45 7 -20 -3
-22 -1 -13 14 16 32 46 40 109 33 58 -6 61 -6 100 29 58 53 130 86 217 99 43
6 72 13 66 15 -22 8 -14 22 15 25 23 3 16 9 -59 51 -47 26 -95 47 -106 47 -30
0 -60 -37 -46 -58 12 -20 35 -22 41 -4 2 6 -3 12 -12 12 -9 0 -16 7 -16 15 0
18 31 20 48 3 29 -29 -7 -86 -46 -74 -48 16 -59 72 -22 112 32 33 15 30 -50
-11 -64 -42 -93 -43 -143 -10 -41 29 -48 40 -17 30 14 -5 37 4 72 26 37 24 64
34 92 34 l41 0 -33 65 c-29 55 -33 73 -30 123 2 35 -1 56 -7 53 -5 -2 -9 -23
-7 -47 4 -57 -4 -86 -26 -98 -15 -8 -17 -3 -16 58 l1 67 -28 -4 c-16 -2 -36
-1 -46 2 -13 6 -10 11 20 32 31 21 36 29 31 49 -4 18 -1 27 10 31 11 4 14 13
11 25 -7 22 12 89 26 89 5 0 9 -9 9 -19 0 -17 41 -105 55 -119 2 -3 2 12 -2
32 -4 26 1 51 18 91 25 58 42 66 47 22z m157 3 l29 -30 -29 0 c-27 0 -28 -1
-10 -14 19 -13 17 -15 -18 -21 -47 -9 -59 1 -29 25 22 18 22 19 2 25 -20 6
-26 25 -13 38 14 15 41 6 68 -23z m3343 8 c2 -9 -5 -19 -18 -23 -20 -6 -20 -7
2 -25 30 -24 18 -34 -29 -25 -35 6 -37 8 -18 21 18 13 17 14 -10 14 l-29 0 29
30 c32 33 68 37 73 8z m131 -33 c17 -40 22 -65 18 -91 -4 -20 -4 -35 -2 -32
14 14 55 102 55 119 0 10 4 19 9 19 14 0 33 -67 26 -89 -3 -12 0 -21 11 -25
11 -4 14 -13 10 -31 -5 -20 0 -28 31 -49 30 -21 33 -26 20 -32 -10 -3 -30 -4
-46 -2 l-30 4 2 -67 c2 -61 1 -66 -15 -58 -22 12 -32 50 -24 89 5 30 -1 60
-13 60 -3 0 -5 -26 -3 -57 3 -50 -1 -68 -30 -123 l-33 -65 41 0 c28 0 55 -10
92 -34 35 -22 58 -31 72 -26 31 10 24 -1 -17 -30 -50 -33 -79 -32 -143 10 -65
41 -82 44 -50 11 37 -40 26 -96 -22 -112 -39 -12 -75 45 -46 74 17 17 48 15
48 -3 0 -8 -7 -15 -16 -15 -9 0 -14 -6 -11 -12 5 -18 28 -16 40 4 14 21 -16
58 -46 58 -11 0 -59 -21 -106 -47 -75 -42 -82 -48 -58 -51 28 -3 36 -17 15
-25 -7 -2 22 -9 65 -15 87 -13 159 -46 217 -99 39 -35 42 -35 100 -29 63 7 93
-1 109 -33 9 -15 7 -17 -13 -14 -13 3 -33 0 -45 -7 l-22 -11 21 -33 c20 -33
28 -96 11 -96 -5 0 -15 7 -22 16 -8 9 -31 27 -51 40 -23 15 -38 32 -38 44 0
11 -6 20 -14 20 -15 0 -26 -21 -26 -51 0 -25 -16 -24 -30 1 -8 14 -7 29 5 56
22 52 19 77 -12 107 -28 26 -107 66 -130 67 -20 0 -15 -24 7 -38 12 -7 19 -16
16 -21 -3 -4 13 -25 34 -46 25 -24 36 -42 29 -46 -7 -4 -11 -50 -11 -123 0
-133 14 -176 71 -213 42 -29 61 -29 95 -2 40 31 49 63 31 105 -13 33 -18 35
-52 33 -40 -3 -66 -16 -58 -29 3 -5 13 -6 23 -3 47 12 56 -65 9 -81 -43 -16
-81 18 -85 76 -3 40 1 49 24 67 40 32 69 35 111 14 50 -24 83 -75 83 -126 0
-34 -6 -46 -40 -79 -46 -43 -88 -50 -143 -23 -43 20 -94 98 -107 162 l-12 53
-24 -30 c-36 -42 -91 -73 -154 -86 l-55 -11 40 -13 c135 -44 271 -140 323
-229 24 -40 27 -56 27 -131 0 -73 -4 -92 -27 -136 -38 -73 -115 -124 -197
-131 -56 -5 -61 -8 -61 -30 0 -97 -108 -169 -193 -128 -46 22 -70 58 -70 109
0 79 95 125 148 71 29 -28 32 -57 9 -79 -19 -20 -28 -20 -43 -2 -10 11 -7 17
10 29 l21 15 -27 18 c-25 16 -27 16 -53 -3 -39 -29 -40 -66 -3 -103 40 -40 82
-40 122 -1 51 51 34 128 -38 168 -38 21 -246 58 -264 47 -5 -3 -9 0 -9 5 0 6
-18 23 -41 38 -22 14 -47 39 -55 55 -8 16 -19 26 -24 23 -6 -4 -10 6 -10 22 0
15 -3 39 -7 52 -6 23 -7 23 -14 5 -11 -28 -11 -102 1 -123 5 -10 30 -24 55
-31 37 -10 65 -33 65 -52 0 -2 -18 -3 -41 -3 -22 0 -43 -3 -45 -7 -3 -5 4 -22
16 -38 23 -33 49 -37 109 -20 22 6 40 6 52 -1 27 -14 24 -27 -8 -35 -23 -6
-24 -8 -10 -19 9 -6 25 -33 36 -58 11 -26 26 -47 33 -47 9 0 9 -3 -2 -10 -26
-17 -57 -11 -88 15 l-31 26 -15 -23 c-9 -12 -16 -30 -16 -40 0 -28 -15 -21
-44 20 -28 41 -33 76 -15 115 9 20 5 35 -28 97 -35 69 -38 79 -38 159 0 47 3
102 7 121 4 19 5 28 2 20 -4 -8 -13 -30 -21 -49 -9 -24 -17 -31 -24 -24 -15
15 15 110 53 167 37 57 45 55 18 -5 -11 -24 -20 -51 -20 -59 0 -8 11 11 24 43
13 32 30 65 37 75 13 15 12 16 -3 3 -21 -15 -24 -2 -5 19 6 8 -3 1 -21 -15
-46 -41 -78 -99 -93 -168 -14 -66 -34 -91 -47 -58 -7 19 -12 16 -65 -35 -39
-37 -57 -63 -57 -79 0 -30 40 -59 70 -50 27 8 27 45 0 45 -11 0 -20 -5 -20
-11 0 -5 -4 -7 -10 -4 -17 10 -11 34 10 45 53 28 86 -53 35 -86 -19 -13 -31
-14 -54 -6 l-30 10 15 -40 c20 -58 17 -93 -11 -125 l-24 -28 -1 24 c0 13 -12
44 -26 69 -21 35 -25 53 -21 88 l4 43 -39 -20 c-22 -11 -68 -24 -102 -28 -33
-5 -47 -9 -29 -10 21 -1 38 -10 52 -27 25 -32 29 -63 6 -44 -8 6 -41 17 -73
24 l-59 12 12 -30 c9 -22 10 -38 3 -56 -10 -24 -11 -23 -35 27 l-24 53 -32
-16 -32 -16 28 29 c24 26 36 53 22 53 -2 0 -27 -9 -54 -20 -74 -29 -94 -15
-29 21 60 32 86 35 114 14 10 -8 28 -14 39 -14 14 0 9 5 -15 15 -19 8 -50 27
-69 41 -23 18 -33 21 -29 11 5 -13 -4 -17 -47 -23 -60 -7 -76 -1 -119 44 -25
26 -27 31 -12 37 9 4 33 4 52 1 40 -7 38 7 -3 18 -33 8 -53 23 -53 40 0 9 11
10 43 3 56 -11 59 -12 82 -25 19 -10 20 -8 17 32 -5 52 16 95 60 128 43 32 76
39 124 26 53 -15 100 -61 113 -115 l11 -43 35 15 c20 8 41 12 46 8 6 -3 21 4
34 16 19 18 27 20 44 11 25 -14 27 -28 4 -53 -24 -26 1 -22 34 6 31 26 71 91
62 101 -3 3 -26 -2 -51 -11 -51 -17 -129 -16 -135 3 -3 7 18 16 54 23 l57 12
-32 17 c-41 21 -72 67 -72 106 0 23 -3 27 -10 15 -15 -23 -12 60 3 89 19 37
46 50 58 28 8 -14 18 -17 39 -12 45 10 95 -19 120 -70 23 -49 17 -82 -22 -109
-32 -23 -62 -20 -97 10 -35 29 -39 58 -15 93 14 19 24 22 56 19 34 -3 37 -2
22 9 -28 21 -72 16 -99 -12 -35 -35 -34 -85 4 -127 27 -30 34 -33 89 -33 l60
0 70 68 c39 37 74 67 79 67 8 0 -1 96 -13 137 -3 13 -143 87 -204 108 -20 7
-46 9 -62 4 -30 -8 -40 7 -12 18 15 6 15 7 -1 19 -17 12 -16 14 9 24 15 5 37
10 49 10 30 0 126 -47 222 -108 l80 -51 6 52 c15 129 71 218 177 280 38 22 65
47 79 73 13 21 23 32 23 24 0 -9 -7 -26 -16 -38 -8 -12 -11 -22 -6 -22 13 0
52 93 52 125 0 17 -15 42 -45 74 -50 54 -53 61 -26 61 10 0 29 -16 42 -35 13
-19 27 -35 30 -35 3 0 11 11 17 25 6 14 19 25 28 25 12 0 14 -3 6 -12 -5 -7
-12 -41 -14 -76 -3 -43 -11 -71 -26 -92 -13 -17 -20 -30 -17 -30 13 0 71 33
93 53 22 20 32 54 12 42 -6 -4 -18 -4 -27 -1 -14 6 -13 10 7 31 27 28 17 34
-13 8 -19 -18 -20 -17 -8 5 15 29 41 25 59 -8 12 -24 12 -23 6 12 -7 45 2 78
23 78 9 0 13 -3 10 -6 -7 -8 33 -84 44 -84 15 0 82 85 101 128 25 56 21 140
-8 179 -39 51 -71 68 -133 68 -48 0 -64 -5 -95 -29 -45 -34 -61 -65 -52 -101
7 -29 28 -41 54 -30 16 8 16 8 -1 12 -26 7 -15 27 16 31 18 2 27 10 29 25 5
34 49 51 90 34 44 -18 59 -38 65 -87 5 -36 2 -43 -30 -74 -19 -18 -50 -36 -68
-40 -103 -20 -210 85 -180 177 7 19 25 46 41 62 22 21 27 32 19 41 -11 14 -4
34 12 34 5 0 9 -6 9 -14 0 -12 13 -14 68 -10 54 5 74 2 105 -14 20 -11 37 -18
37 -16 0 3 -9 22 -20 44 -26 51 -26 101 -1 100 3 0 17 -25 30 -55z m-3251 -31
l65 -37 -27 -14 c-23 -12 -31 -12 -72 7 -26 11 -66 20 -91 20 -50 0 -49 10 1
41 42 26 49 25 124 -17z m2941 22 c15 -8 33 -22 40 -30 12 -14 8 -16 -32 -16
-24 0 -65 -9 -91 -20 -41 -19 -49 -19 -72 -7 l-27 14 64 36 c72 41 79 43 118
23z m-3003 -90 c16 -12 20 -31 25 -118 3 -57 4 -105 2 -107 -2 -3 -14 6 -28
19 -19 18 -25 37 -31 92 -4 43 -13 77 -25 92 -11 13 -19 27 -19 30 0 12 57 6
76 -8z m3024 8 c0 -3 -8 -17 -19 -30 -12 -15 -21 -49 -25 -92 -6 -55 -12 -74
-31 -92 -14 -13 -26 -22 -28 -19 -2 2 -1 50 2 107 5 87 9 106 25 118 19 14 76
20 76 8z m-2851 -283 c63 -29 63 -41 1 -41 l-29 0 19 -42 c22 -48 26 -83 9
-72 -8 4 -9 -1 -4 -16 5 -15 3 -20 -3 -16 -6 3 -13 -3 -17 -14 -3 -11 -16 -25
-27 -31 -23 -12 -84 -4 -94 13 -5 7 -2 8 7 3 12 -8 12 -6 0 8 -7 9 -17 15 -20
12 -4 -2 -5 17 -1 42 5 34 15 52 34 65 14 11 26 24 26 30 0 18 -71 1 -98 -24
l-26 -23 18 30 c27 44 98 104 123 105 11 0 49 -13 82 -29z m2747 -9 c23 -20
50 -50 60 -67 l18 -30 -26 23 c-27 25 -98 42 -98 24 0 -6 12 -19 26 -30 19
-13 29 -31 34 -65 4 -25 3 -44 -1 -42 -3 3 -13 -3 -20 -12 -12 -14 -12 -16 0
-8 9 5 12 4 7 -3 -10 -17 -71 -25 -94 -13 -11 6 -24 20 -27 31 -4 11 -11 17
-17 14 -6 -4 -8 1 -3 16 5 15 4 20 -4 16 -17 -11 -13 24 9 72 l19 42 -29 0
c-61 0 -62 11 -3 40 77 38 100 37 149 -8z m-1882 -763 c36 -42 42 -74 23 -115
-19 -38 -37 -45 -37 -13 0 11 -11 40 -25 63 -21 36 -24 48 -15 70 12 34 22 33
54 -5z m926 5 c9 -22 6 -34 -15 -70 -14 -23 -25 -52 -25 -63 0 -32 -18 -25
-37 13 -19 41 -13 73 23 115 32 38 42 39 54 5z m-1035 -46 c15 -7 35 -29 46
-50 11 -21 18 -38 17 -38 -2 0 -25 7 -52 15 -27 8 -75 15 -106 15 -43 0 -64 5
-81 20 l-24 19 30 1 c17 1 53 7 80 15 63 17 59 17 90 3z m261 -19 c-14 -17
-26 -34 -26 -39 0 -18 -53 -70 -71 -70 -15 0 -18 5 -13 33 11 60 59 107 112
107 l24 0 -26 -31z m647 -9 c15 -17 27 -39 27 -49 0 -11 3 -26 6 -35 11 -29
-33 -18 -60 15 -14 17 -26 34 -26 39 0 5 -12 23 -27 41 l-28 32 40 -6 c27 -4
49 -17 68 -37z m295 19 c13 -5 38 -9 55 -9 l32 -1 -24 -19 c-17 -15 -38 -20
-81 -20 -31 0 -79 -7 -106 -15 -27 -8 -50 -15 -52 -15 -12 0 42 79 60 87 23
12 72 8 116 -8z m-1430 -51 c-3 -21 -65 -64 -76 -53 -2 2 8 20 23 39 31 41 58
48 53 14z m1597 -14 c15 -19 25 -37 23 -39 -11 -11 -73 32 -76 53 -5 34 22 27
53 -14z m-1471 -3 c8 -12 -50 -35 -69 -28 -8 4 -12 13 -9 22 7 16 69 22 78 6z
m1370 -6 c3 -9 -1 -18 -9 -22 -19 -7 -77 16 -69 28 9 16 71 10 78 -6z m-1138
-50 c4 -8 16 -15 28 -15 25 0 66 -34 66 -55 0 -28 -21 -26 -51 6 -29 31 -30
31 -18 5 9 -19 10 -29 1 -38 -8 -8 -15 -2 -25 23 -9 21 -10 36 -4 40 5 4 0 12
-12 18 -12 7 -19 16 -16 22 9 14 25 11 31 -6z m859 6 c3 -6 -4 -15 -16 -22
-12 -6 -17 -14 -12 -18 6 -4 5 -19 -4 -40 -10 -25 -17 -31 -25 -23 -9 9 -8 19
1 38 12 26 11 26 -18 -5 -30 -32 -51 -34 -51 -6 0 21 41 55 66 55 12 0 24 7
28 15 6 17 22 20 31 6z"/>
<path d="M495 4104 c-48 -26 -87 -67 -73 -75 9 -6 4 -14 -15 -29 -34 -27 -34
-40 -3 -40 14 0 28 -4 31 -10 3 -5 0 -10 -7 -10 -8 0 -23 -7 -34 -15 -14 -11
-15 -14 -2 -9 21 7 54 -11 68 -37 16 -28 -12 -71 -43 -67 -26 4 -38 48 -13 48
9 0 16 5 16 10 0 6 -9 10 -20 10 -26 0 -43 -34 -35 -71 5 -24 10 -28 29 -23
17 4 22 0 23 -17 4 -43 20 -42 35 2 18 53 43 72 62 46 13 -16 14 -16 19 5 2
13 8 30 11 39 5 12 0 18 -19 23 -60 15 -94 92 -65 147 15 28 65 51 95 43 38
-9 61 -48 47 -78 -9 -20 -7 -27 8 -41 17 -15 19 -15 34 7 24 33 20 92 -7 123
-29 34 -98 43 -142 19z"/>
<path d="M490 4030 c-11 -11 -20 -27 -20 -35 0 -27 22 -63 47 -74 34 -16 41
-14 15 5 -25 18 -29 34 -7 34 12 0 13 4 4 19 -14 22 -6 51 15 51 9 0 12 -7 9
-20 -6 -23 15 -28 23 -5 16 41 -51 60 -86 25z"/>
<path d="M700 4024 c0 -34 -18 -76 -46 -105 l-24 -25 31 -23 c17 -13 32 -21
33 -19 1 1 9 19 16 38 8 19 32 54 54 78 21 23 37 43 35 45 -2 1 -25 9 -51 18
l-48 17 0 -24z"/>
<path d="M1573 4009 c-48 -9 -96 -30 -133 -59 -23 -18 -23 -20 -5 -20 19 -1
19 -1 2 -11 -18 -10 -18 -12 2 -26 25 -17 91 -27 91 -14 0 18 50 69 85 85 44
21 94 9 125 -31 39 -49 13 -123 -43 -123 -18 0 -23 -5 -23 -22 1 -14 -6 -24
-16 -26 -12 -2 -16 1 -12 11 8 21 -22 29 -37 10 -11 -13 -9 -19 16 -40 61 -53
164 -7 181 81 9 50 -1 81 -42 126 -48 52 -116 74 -191 59z"/>
<path d="M870 3969 c-32 -13 -78 -56 -96 -91 -20 -39 -17 -80 9 -118 37 -56
95 -63 150 -19 46 35 32 99 -21 99 -17 0 -23 -5 -20 -17 2 -11 12 -18 26 -17
27 1 28 -8 4 -29 -42 -39 -102 -8 -102 51 0 26 7 36 33 52 38 24 59 25 96 5
59 -30 73 -113 28 -162 -11 -13 -19 -24 -16 -26 2 -2 16 -11 31 -20 28 -17 28
-17 42 15 l14 33 10 -25 11 -25 0 25 c1 14 -3 40 -8 57 -9 31 2 57 12 31 3 -7
6 1 6 17 0 17 -8 41 -19 55 -23 30 -25 44 -5 36 8 -3 15 -1 15 4 0 4 -17 14
-37 21 -52 16 -56 19 -43 34 8 9 6 14 -6 19 -23 9 -85 6 -114 -5z"/>
<path d="M1622 3934 c-13 -9 -21 -21 -19 -27 3 -7 -9 -26 -25 -44 -25 -25 -29
-37 -24 -59 l7 -27 28 27 c15 14 35 26 45 26 9 0 14 5 11 10 -4 6 -1 17 5 25
6 8 8 20 4 26 -5 8 -3 9 6 4 8 -5 11 -4 6 3 -11 18 15 25 30 8 8 -9 9 -11 2
-6 -20 17 -27 11 -19 -17 10 -38 35 -36 39 4 2 23 -3 35 -20 47 -28 20 -48 20
-76 0z m38 -13 c0 -6 -5 -13 -10 -16 -15 -9 -43 3 -35 15 8 13 45 13 45 1z"/>
<path d="M593 3843 c-16 -6 -17 -30 -1 -35 6 -2 9 -12 5 -21 -5 -12 -14 -16
-29 -12 -18 4 -27 -1 -40 -25 l-17 -30 24 6 c19 5 25 2 25 -10 0 -20 4 -20 40
-1 57 29 77 87 42 118 -19 17 -28 19 -49 10z"/>
<path d="M1378 3832 c-10 -2 -18 -8 -18 -13 0 -13 27 -11 35 2 9 13 4 16 -17
11z"/>
<path d="M685 3750 c-3 -11 -23 -34 -43 -51 -38 -32 -35 -33 31 -5 33 15 38
15 43 1 9 -23 -14 -44 -63 -57 -24 -6 -41 -14 -36 -19 9 -9 145 -61 147 -57 1
2 14 23 30 46 15 24 26 45 24 46 -2 1 -17 8 -34 15 -18 7 -42 31 -59 57 -15
24 -29 44 -31 44 -1 0 -5 -9 -9 -20z"/>
<path d="M882 3614 c-12 -8 -29 -28 -37 -44 l-15 -29 56 -20 c30 -12 73 -30
94 -41 l40 -20 0 22 c0 34 -45 125 -69 137 -27 15 -43 14 -69 -5z"/>
<path d="M799 3447 c17 -22 0 -29 -23 -10 l-21 18 19 -23 c11 -13 21 -31 22
-40 3 -16 2 -16 -10 1 -7 9 -18 17 -23 17 -6 0 -24 7 -39 15 -60 31 -140 12
-187 -44 -42 -51 -36 -156 10 -156 10 0 27 -18 41 -43 19 -34 27 -40 37 -32
11 9 25 5 62 -16 26 -16 42 -21 36 -13 -18 22 -7 29 48 29 26 0 51 5 54 10 3
6 -1 10 -9 10 -9 0 -16 4 -16 9 0 13 18 24 59 36 45 13 52 33 10 27 -41 -6
-36 18 7 33 41 14 54 24 54 41 0 12 -4 12 -21 4 -35 -19 -44 -5 -15 22 l28 26
-39 3 c-34 4 -39 2 -35 -14 9 -34 -28 -107 -71 -138 -54 -39 -105 -39 -149 0
-26 23 -32 36 -32 71 0 34 5 47 28 66 31 28 64 31 92 8 18 -15 18 -15 -3 -5
-27 14 -66 14 -58 1 4 -6 -1 -7 -12 -4 -16 5 -16 4 1 -10 11 -9 15 -16 9 -16
-7 0 -10 -16 -9 -38 2 -42 12 -62 29 -62 6 0 2 7 -9 16 -18 15 -18 15 3 5 12
-6 32 -11 45 -12 l23 -1 -24 -7 c-39 -11 -36 -28 4 -23 21 3 32 8 28 15 -3 6
-1 7 6 3 14 -9 43 12 35 26 -3 5 -13 4 -22 -4 -9 -7 -6 0 6 16 12 16 22 40 22
55 0 14 5 33 10 41 7 11 8 6 4 -17 -3 -17 -2 -38 3 -47 6 -12 9 -2 8 33 -1 28
-4 54 -8 57 -4 4 -2 13 4 21 6 7 8 13 3 13 -10 0 28 29 39 30 4 0 7 -9 7 -19
0 -27 28 -34 40 -10 16 29 6 36 -56 38 -46 1 -54 -1 -45 -12z m-59 -121 c0
-16 -29 -56 -41 -56 -5 0 -9 9 -9 19 0 11 -5 21 -11 23 -8 3 -6 9 4 20 18 17
57 13 57 -6z"/>
<path d="M981 3330 c-28 -95 -84 -172 -165 -232 -58 -42 -28 -34 34 10 30 20
69 56 87 80 33 44 67 138 61 170 -2 9 -9 -2 -17 -28z"/>
<path d="M623 3335 c0 -8 4 -12 9 -9 5 3 6 10 3 15 -9 13 -12 11 -12 -6z"/>
<path d="M827 3343 c-4 -3 -7 -11 -7 -17 0 -6 5 -5 12 2 6 6 9 14 7 17 -3 3
-9 2 -12 -2z"/>
<path d="M787 3276 c-3 -8 -2 -18 3 -21 13 -8 20 9 11 24 -6 10 -10 9 -14 -3z"/>
<path d="M330 2900 c8 -5 20 -10 25 -10 6 0 3 5 -5 10 -8 5 -19 10 -25 10 -5
0 -3 -5 5 -10z"/>
<path d="M554 2710 c-12 -5 -25 -14 -29 -20 -5 -8 -10 -8 -20 0 -11 9 -17 5
-31 -14 -14 -22 -15 -31 -4 -57 14 -33 42 -49 72 -41 21 5 24 28 6 36 -10 3
-9 8 3 18 9 7 18 22 20 33 2 11 15 25 27 31 20 10 21 12 7 18 -20 7 -24 7 -51
-4z"/>
<path d="M3869 4091 c-34 -34 -40 -91 -13 -129 15 -22 17 -22 34 -7 15 14 17
21 8 41 -14 30 9 69 47 78 30 8 80 -15 95 -43 29 -55 -5 -132 -65 -147 -19 -5
-24 -11 -19 -23 3 -9 9 -26 11 -39 5 -21 6 -21 19 -5 19 26 46 6 63 -46 14
-44 30 -44 34 -2 1 17 6 21 23 17 19 -5 24 -1 29 23 8 37 -9 71 -35 71 -11 0
-20 -4 -20 -10 0 -5 7 -10 16 -10 25 0 13 -44 -13 -48 -26 -4 -53 31 -46 59 7
27 48 53 70 45 15 -5 15 -4 -1 9 -11 8 -26 15 -34 15 -7 0 -10 5 -7 10 3 6 17
10 31 10 31 0 31 13 -3 40 -19 15 -24 23 -15 29 9 5 4 15 -15 33 -70 65 -146
76 -194 29z"/>
<path d="M3750 4030 c-25 -8 -47 -16 -49 -17 -2 -1 14 -22 35 -45 22 -24 46
-59 54 -78 7 -19 15 -37 16 -38 1 -2 16 6 33 19 l30 22 -29 33 c-16 19 -32 51
-35 71 -4 21 -7 40 -8 43 -1 3 -22 -1 -47 -10z"/>
<path d="M3930 4035 c-14 -16 -7 -45 11 -45 6 0 9 9 6 20 -3 13 0 20 9 20 21
0 29 -29 15 -51 -9 -15 -8 -19 4 -19 22 0 18 -16 -7 -34 -26 -19 -19 -21 15
-5 25 11 47 47 47 74 0 42 -74 71 -100 40z"/>
<path d="M2825 4005 c-54 -14 -119 -73 -131 -119 -11 -44 5 -97 41 -133 26
-26 41 -33 73 -33 53 0 104 39 83 63 -15 19 -45 11 -37 -10 4 -10 0 -13 -12
-11 -10 2 -17 12 -16 26 0 17 -5 22 -23 22 -56 0 -82 74 -43 123 31 40 81 52
125 31 35 -16 85 -67 85 -85 0 -15 21 -10 38 9 10 10 13 13 9 6 -14 -21 8 -24
38 -4 26 17 27 20 10 26 -17 7 -17 8 -1 14 15 5 11 10 -20 31 -71 47 -148 62
-219 44z"/>
<path d="M3512 3973 c-9 -4 -10 -8 -2 -18 13 -15 9 -18 -42 -34 -21 -7 -38
-17 -38 -21 0 -5 7 -7 15 -4 20 8 18 -6 -5 -36 -11 -14 -19 -38 -19 -55 0 -16
3 -24 6 -17 10 26 21 0 12 -31 -5 -17 -9 -43 -8 -57 l0 -25 11 25 10 25 14
-33 c14 -32 14 -32 42 -15 15 9 29 18 31 20 3 2 -5 13 -16 26 -45 49 -31 132
28 162 37 20 58 19 97 -5 26 -16 32 -26 32 -53 0 -59 -66 -90 -103 -49 -22 24
-21 29 5 28 14 -1 24 6 26 17 3 12 -3 17 -20 17 -53 0 -67 -64 -21 -99 55 -44
113 -37 151 19 25 38 28 79 8 118 -19 36 -65 78 -99 91 -29 11 -92 13 -115 4z"/>
<path d="M2802 3934 c-17 -12 -22 -24 -20 -47 4 -40 29 -42 39 -4 8 28 1 34
-19 17 -7 -5 -6 -3 2 6 15 17 41 10 30 -8 -5 -7 -2 -8 6 -3 9 5 11 4 6 -4 -4
-6 -2 -18 4 -26 6 -8 9 -19 5 -25 -3 -5 2 -10 11 -10 10 0 30 -12 45 -26 l28
-27 7 27 c5 22 1 34 -24 59 -16 18 -28 37 -25 44 5 13 -34 43 -57 43 -9 0 -26
-7 -38 -16z m81 -19 c-4 -15 -36 -12 -41 3 -3 9 3 13 19 10 13 -1 23 -7 22
-13z"/>
<path d="M3857 3832 c-32 -36 -13 -88 43 -117 36 -19 40 -19 40 1 0 12 6 15
25 10 l24 -6 -17 30 c-13 24 -22 29 -40 25 -15 -4 -24 0 -29 12 -4 9 -1 19 5
21 17 5 15 29 -4 36 -24 9 -29 8 -47 -12z"/>
<path d="M3103 3827 c5 -15 37 -22 37 -9 0 5 -9 12 -21 15 -13 3 -19 1 -16 -6z"/>
<path d="M3786 3742 c-18 -34 -71 -82 -92 -82 -19 0 -18 -4 13 -53 15 -23 28
-43 29 -45 2 -4 138 48 147 57 5 5 -7 11 -27 15 -46 9 -81 38 -73 60 6 15 9
15 44 0 62 -26 69 -27 39 -3 -15 12 -36 36 -46 52 l-18 29 -16 -30z"/>
<path d="M3547 3619 c-22 -13 -67 -104 -67 -137 l0 -22 40 20 c21 11 64 29 94
41 l56 20 -15 29 c-27 52 -70 71 -108 49z"/>
<path d="M3594 3449 c-3 -5 0 -18 6 -28 12 -24 40 -17 40 10 0 10 3 19 8 19
10 -1 48 -30 38 -30 -5 0 -3 -6 3 -13 6 -8 8 -17 4 -21 -4 -3 -7 -29 -8 -57
-1 -35 2 -45 8 -33 5 9 6 30 3 47 -4 23 -3 28 4 17 5 -8 10 -27 10 -41 0 -15
10 -39 22 -55 12 -16 15 -23 6 -16 -9 8 -19 9 -22 4 -8 -14 21 -35 35 -26 7 4
9 3 6 -3 -4 -7 7 -12 27 -15 24 -3 32 0 29 9 -3 7 -15 13 -27 14 -15 1 -12 3
10 8 17 4 37 11 45 15 8 4 5 0 -5 -8 -11 -9 -15 -16 -9 -16 17 0 27 20 29 62
1 22 -2 38 -9 38 -6 0 -2 7 9 16 17 14 17 15 1 10 -10 -3 -15 -2 -12 3 3 5 -7
12 -22 14 l-28 4 27 2 c16 0 38 -9 54 -23 65 -55 15 -166 -75 -166 -54 0 -114
45 -136 104 -10 25 -15 53 -13 63 4 16 -1 18 -34 14 l-40 -3 28 -29 c28 -29
20 -38 -17 -19 -15 8 -19 7 -19 -3 0 -19 18 -33 51 -41 15 -3 30 -13 33 -22 5
-13 1 -16 -24 -12 -44 7 -32 -12 20 -31 44 -16 65 -41 35 -41 -9 0 -13 -4 -10
-10 3 -5 28 -10 54 -10 55 0 66 -7 48 -29 -6 -8 10 -3 36 13 37 21 51 25 62
16 10 -9 19 -1 41 39 21 39 30 48 40 40 18 -15 34 19 34 72 0 99 -123 171
-214 124 -15 -8 -33 -15 -39 -15 -5 0 -16 -8 -23 -17 -12 -17 -13 -17 -10 -1
1 9 11 27 22 40 l19 23 -21 -18 c-23 -19 -40 -12 -23 10 9 11 1 13 -45 12 -31
-1 -59 -5 -62 -10z m230 -125 c3 -8 1 -14 -4 -14 -6 0 -10 -9 -10 -20 0 -26
-15 -25 -34 2 -21 29 -20 46 2 50 23 6 39 -1 46 -18z"/>
<path d="M3505 3330 c8 -58 35 -118 74 -162 35 -41 128 -104 138 -94 4 3 1 6
-5 6 -17 0 -119 97 -143 137 -13 20 -33 64 -46 97 l-24 61 6 -45z"/>
<path d="M3660 3341 c0 -5 5 -13 10 -16 6 -3 10 -2 10 4 0 5 -4 13 -10 16 -5
3 -10 2 -10 -4z"/>
<path d="M3865 3341 c-3 -5 -2 -12 3 -15 5 -3 9 1 9 9 0 17 -3 19 -12 6z"/>
<path d="M3697 3277 c-3 -8 1 -14 8 -14 7 0 11 6 8 14 -3 7 -6 13 -8 13 -2 0
-5 -6 -8 -13z"/>
<path d="M3892 2713 c-10 -4 -7 -9 10 -17 12 -6 25 -20 27 -31 2 -11 11 -26
20 -33 12 -10 13 -15 4 -18 -19 -8 -16 -31 5 -36 30 -8 58 8 72 41 11 27 10
35 -5 57 -12 19 -20 23 -28 15 -8 -8 -15 -7 -26 3 -19 17 -61 27 -79 19z"/>
<path d="M925 2880 c-4 -6 -17 -15 -29 -20 -20 -8 -19 -9 5 -9 16 -1 29 6 33
15 8 20 1 30 -9 14z"/>
<path d="M3563 2877 c4 -10 7 -21 7 -23 0 -2 12 -4 28 -3 15 0 20 3 12 6 -8 3
-24 13 -34 22 -18 15 -19 15 -13 -2z"/>
<path d="M504 1919 c-12 -4 -27 -21 -34 -38 -11 -26 -10 -35 4 -57 14 -19 20
-23 31 -14 10 8 15 8 20 0 11 -17 55 -31 77 -24 19 6 19 7 -3 18 -13 6 -26 20
-28 31 -2 11 -11 26 -20 33 -12 10 -13 15 -3 18 18 8 15 31 -6 36 -10 3 -27 2
-38 -3z"/>
<path d="M816 1402 c79 -58 127 -123 165 -226 l19 -51 -5 45 c-12 92 -66 173
-154 229 -60 39 -77 41 -25 3z"/>
<path d="M682 1364 c-33 -20 -46 -23 -56 -14 -11 8 -19 2 -38 -32 -14 -25 -31
-43 -41 -43 -26 0 -37 -23 -37 -77 0 -35 6 -54 25 -76 48 -57 130 -78 189 -47
15 8 33 15 39 15 5 0 16 8 23 18 12 16 13 16 10 0 -1 -9 -11 -27 -22 -40 l-19
-23 21 18 c23 19 40 12 23 -10 -9 -11 -1 -13 45 -12 62 2 72 9 56 38 -12 24
-40 17 -40 -10 0 -10 -3 -19 -7 -19 -11 1 -49 30 -39 30 5 0 3 6 -3 13 -6 8
-8 17 -4 21 4 3 7 29 8 57 1 35 -2 45 -8 33 -5 -9 -6 -30 -3 -47 4 -23 3 -28
-4 -17 -5 8 -10 27 -10 41 0 15 -10 39 -22 55 -12 16 -15 23 -6 16 21 -17 33
1 12 18 -11 10 -18 10 -26 2 -7 -7 -23 -12 -36 -12 -13 0 -33 -5 -45 -11 -21
-10 -21 -10 -3 5 11 9 15 16 9 16 -5 0 -18 -10 -29 -22 -10 -12 -14 -18 -7
-14 9 5 11 -3 8 -29 -3 -23 -1 -35 7 -35 6 0 3 -6 -8 -14 -18 -14 -18 -15 9
-21 16 -4 40 -3 55 4 25 11 26 10 8 -4 -28 -22 -61 -19 -92 9 -65 55 -15 166
75 166 54 0 114 -45 136 -104 10 -25 15 -54 12 -65 -4 -16 -1 -18 22 -11 14 4
33 5 41 2 8 -2 2 9 -14 27 -30 31 -22 41 15 21 15 -8 19 -7 19 4 0 17 -13 27
-54 41 -43 15 -48 39 -7 33 45 -7 34 12 -19 31 -44 16 -65 41 -35 41 9 0 13 5
10 10 -3 6 -28 10 -54 10 -53 0 -66 7 -50 27 16 18 10 16 -39 -13z m42 -156
c21 -30 20 -45 -4 -51 -22 -6 -62 24 -41 31 6 2 11 12 11 23 0 25 15 24 34 -3z"/>
<path d="M687 1283 c6 -15 49 -18 57 -4 3 5 -9 11 -28 13 -24 3 -32 0 -29 -9z"/>
<path d="M787 1223 c3 -7 6 -13 8 -13 2 0 5 6 8 13 3 8 -1 14 -8 14 -7 0 -11
-6 -8 -14z"/>
<path d="M623 1165 c0 -8 4 -12 9 -9 5 3 6 10 3 15 -9 13 -12 11 -12 -6z"/>
<path d="M820 1171 c0 -5 5 -13 10 -16 6 -3 10 -2 10 4 0 5 -4 13 -10 16 -5 3
-10 2 -10 -4z"/>
<path d="M990 1025 c-14 -8 -56 -26 -93 -41 l-68 -26 19 -31 c26 -46 63 -64
97 -49 29 13 79 109 73 141 -3 18 -5 18 -28 6z"/>
<path d="M690 914 c-81 -31 -90 -40 -49 -48 42 -8 79 -32 79 -51 0 -20 -33
-19 -71 1 -39 20 -48 12 -14 -10 14 -9 34 -31 45 -48 l18 -30 16 30 c18 35 71
82 93 82 8 0 13 3 11 8 -10 23 -54 92 -58 91 -3 0 -34 -11 -70 -25z"/>
<path d="M996 825 c-10 -8 -24 -16 -30 -18 -6 -3 -1 -15 13 -30 50 -54 23
-147 -49 -168 -33 -10 -43 -9 -72 8 -60 35 -44 123 22 123 15 0 34 -8 43 -18
22 -24 21 -29 -5 -28 -14 1 -24 -6 -26 -16 -3 -13 3 -18 20 -18 53 0 67 64 21
99 -55 44 -113 37 -150 -19 -38 -56 -27 -115 34 -172 34 -32 73 -48 118 -48
48 0 68 9 55 25 -13 15 -9 18 43 34 20 7 37 17 37 21 0 5 -7 7 -15 4 -20 -8
-18 6 5 36 11 14 19 39 19 55 0 17 -3 24 -6 17 -10 -26 -21 0 -12 31 5 17 9
43 8 57 l0 25 -11 -25 -10 -25 -14 33 c-16 37 -13 36 -38 17z"/>
<path d="M560 784 c0 -12 -6 -15 -25 -10 l-24 6 17 -30 c13 -24 22 -29 40 -25
15 4 24 0 29 -12 4 -9 1 -19 -5 -21 -19 -6 -14 -30 9 -37 25 -8 59 20 59 49 0
29 -25 63 -60 81 -36 19 -40 19 -40 -1z"/>
<path d="M1623 756 c-23 -20 -25 -26 -14 -39 15 -19 45 -11 37 10 -4 10 0 13
12 11 10 -2 17 -12 16 -26 0 -17 5 -22 23 -22 56 0 82 -74 43 -123 -31 -40
-81 -52 -125 -31 -35 16 -85 67 -85 85 0 14 -66 3 -91 -15 -21 -14 -21 -16 -4
-22 18 -7 18 -8 1 -14 -27 -9 49 -56 120 -75 82 -21 146 -6 201 49 23 23 45
54 48 69 12 45 -4 98 -40 134 -42 42 -99 46 -142 9z"/>
<path d="M422 750 c-5 -14 -7 -29 -4 -34 3 -5 -6 -6 -21 -2 -22 5 -26 2 -32
-23 -8 -37 9 -71 35 -71 11 0 20 5 20 10 0 6 -7 10 -16 10 -25 0 -13 44 13 48
31 4 59 -39 43 -67 -14 -26 -47 -44 -68 -37 -13 5 -12 2 2 -9 11 -8 26 -15 34
-15 7 0 10 -4 7 -10 -3 -5 -17 -10 -31 -10 -31 0 -31 -13 3 -40 19 -15 24 -23
15 -29 -15 -9 27 -51 77 -76 47 -24 109 -15 138 20 27 31 31 90 7 123 -15 22
-17 22 -34 7 -15 -14 -17 -21 -8 -41 14 -30 -9 -69 -47 -78 -30 -8 -80 15 -95
43 -29 55 5 132 65 147 19 5 24 11 19 23 -3 9 -9 26 -11 39 -5 20 -7 21 -18 6
-15 -22 -42 -12 -54 18 -5 13 -13 34 -19 48 l-10 25 -10 -25z"/>
<path d="M1554 696 c-5 -22 -1 -33 22 -57 16 -17 29 -38 29 -47 0 -9 12 -23
28 -32 24 -13 30 -13 55 0 21 13 27 23 27 50 0 43 -25 48 -36 8 -7 -28 -2 -35
17 -20 5 4 4 1 -2 -7 -14 -15 -38 -5 -28 11 5 7 2 8 -6 3 -9 -5 -11 -4 -6 4 4
6 2 18 -4 26 -6 8 -9 19 -5 25 3 5 -2 10 -11 10 -10 0 -30 12 -45 26 l-28 27
-7 -27z m104 -113 c2 -8 -5 -13 -17 -13 -21 0 -35 13 -24 24 10 10 36 3 41
-11z"/>
<path d="M1360 682 c0 -5 9 -12 21 -15 13 -3 19 -1 16 6 -5 15 -37 22 -37 9z"/>
<path d="M657 626 l-28 -22 22 -20 c26 -23 49 -74 49 -107 l0 -25 48 17 c26 9
49 17 51 18 2 2 -14 22 -36 46 -22 24 -47 60 -54 80 -7 21 -15 37 -19 37 -3
-1 -18 -11 -33 -24z"/>
<path d="M513 578 c-31 -15 -49 -62 -35 -93 13 -28 57 -43 81 -28 20 13 21 45
2 51 -10 3 -12 -1 -8 -17 3 -14 1 -21 -9 -21 -21 0 -29 29 -15 51 9 15 8 19
-4 19 -22 0 -18 15 8 33 25 18 13 21 -20 5z"/>
<path d="M3958 1922 c-21 -4 -24 -28 -5 -36 9 -3 8 -8 -4 -18 -9 -7 -18 -22
-20 -33 -2 -11 -15 -25 -28 -31 -22 -11 -22 -12 -3 -18 22 -7 66 7 77 24 5 8
10 8 20 0 11 -9 18 -5 31 15 16 24 16 29 1 59 -15 33 -37 45 -69 38z"/>
<path d="M3654 1396 c-88 -59 -137 -134 -149 -226 l-5 -45 19 51 c38 103 86
168 165 226 55 40 31 35 -30 -6z"/>
<path d="M3777 1379 c18 -22 7 -29 -48 -29 -26 0 -51 -4 -54 -10 -3 -5 1 -10
10 -10 30 0 9 -25 -35 -41 -52 -19 -64 -38 -20 -31 25 4 29 1 24 -12 -3 -9
-18 -19 -33 -22 -33 -8 -51 -22 -51 -41 0 -11 4 -11 21 -3 35 19 43 5 13 -24
-16 -16 -22 -26 -14 -24 8 3 27 2 41 -2 23 -7 26 -5 22 11 -10 36 27 109 70
140 54 39 105 39 149 0 26 -23 32 -36 32 -71 0 -34 -5 -47 -28 -66 -31 -28
-64 -31 -92 -9 -18 14 -17 15 8 4 15 -7 39 -8 55 -4 27 6 27 7 9 21 -11 8 -15
14 -9 14 7 0 10 16 9 38 -2 42 -12 62 -29 62 -6 0 -2 -7 9 -16 18 -15 18 -15
-3 -5 -12 6 -32 11 -45 11 -13 0 -29 5 -36 12 -8 8 -15 8 -26 -2 -21 -17 -9
-35 12 -18 9 7 6 0 -6 -16 -12 -16 -22 -40 -22 -55 0 -14 -5 -33 -10 -41 -7
-11 -8 -6 -4 17 3 17 2 38 -3 47 -6 12 -9 2 -8 -33 1 -28 4 -54 8 -57 4 -4 2
-13 -4 -21 -6 -7 -8 -13 -3 -13 10 0 -28 -29 -38 -30 -5 0 -8 9 -8 19 0 27
-28 34 -40 10 -16 -29 -6 -36 56 -38 46 -1 54 1 45 12 -17 22 0 29 23 10 l21
-18 -19 23 c-11 13 -21 31 -22 40 -3 16 -2 16 10 0 7 -10 18 -18 23 -18 6 0
24 -7 39 -15 92 -48 214 25 214 126 0 51 -12 74 -37 74 -10 0 -27 18 -41 43
-19 34 -27 40 -37 32 -11 -9 -25 -5 -62 16 -26 16 -42 21 -36 13z m33 -168 c0
-11 5 -21 11 -23 21 -7 -19 -37 -41 -31 -24 6 -25 21 -4 51 19 27 34 28 34 3z"/>
<path d="M3782 1293 c-18 -2 -30 -9 -27 -14 10 -15 52 -10 59 6 3 8 4 14 3 13
-1 0 -17 -3 -35 -5z"/>
<path d="M3697 1223 c3 -7 6 -13 8 -13 2 0 5 6 8 13 3 8 -1 14 -8 14 -7 0 -11
-6 -8 -14z"/>
<path d="M3667 1173 c-4 -3 -7 -11 -7 -17 0 -6 5 -5 12 2 6 6 9 14 7 17 -3 3
-9 2 -12 -2z"/>
<path d="M3865 1171 c-3 -5 -2 -12 3 -15 5 -3 9 1 9 9 0 17 -3 19 -12 6z"/>
<path d="M3480 1017 c0 -39 47 -126 75 -139 33 -15 69 1 95 44 l20 33 -28 12
c-15 6 -57 25 -94 42 -68 30 -68 30 -68 8z"/>
<path d="M3710 897 c-34 -57 -34 -57 -17 -57 22 0 75 -47 93 -82 l16 -30 18
30 c11 17 31 39 45 48 34 22 25 30 -14 10 -38 -20 -71 -21 -71 -2 0 20 37 45
78 52 18 4 30 10 25 15 -6 6 -137 59 -146 59 -1 0 -13 -19 -27 -43z"/>
<path d="M3466 808 l-14 -33 -10 25 -11 25 0 -25 c-1 -14 3 -40 8 -57 9 -31
-2 -57 -12 -31 -3 7 -6 0 -6 -17 0 -16 8 -41 19 -55 23 -30 25 -44 5 -36 -8 3
-15 1 -15 -4 0 -4 17 -14 38 -21 51 -16 55 -19 42 -34 -13 -16 7 -25 55 -25
45 0 84 16 118 48 61 57 72 116 35 172 -38 56 -96 63 -151 19 -45 -34 -30
-107 20 -97 27 5 23 33 -4 32 -28 -1 -29 7 -5 29 44 40 106 6 100 -54 -2 -25
-11 -38 -37 -53 -31 -18 -37 -18 -74 -5 -72 25 -96 114 -45 169 11 12 18 22
17 24 -58 38 -58 38 -73 4z"/>
<path d="M3893 780 c-54 -33 -69 -83 -34 -114 13 -11 27 -15 40 -11 23 7 28
31 9 37 -6 2 -9 12 -5 21 5 12 14 16 29 12 18 -4 27 1 40 25 l17 30 -24 -6
c-19 -5 -25 -2 -25 10 0 21 -8 20 -47 -4z"/>
<path d="M2735 747 c-36 -36 -52 -89 -40 -134 3 -15 25 -46 48 -69 55 -55 119
-70 201 -49 71 19 147 66 120 75 -17 6 -17 7 1 14 17 6 17 8 -4 22 -25 18 -91
29 -91 15 0 -18 -50 -69 -85 -85 -44 -21 -94 -9 -125 31 -39 49 -13 123 43
123 18 0 23 5 23 22 -1 14 6 24 16 26 12 2 16 -1 12 -11 -8 -21 22 -29 37 -10
21 24 -30 63 -83 63 -32 0 -47 -7 -73 -33z"/>
<path d="M4048 729 c-18 -53 -43 -72 -62 -46 -13 16 -14 16 -19 -5 -2 -13 -8
-30 -11 -39 -5 -12 0 -18 19 -23 60 -15 94 -92 65 -147 -15 -28 -65 -51 -95
-43 -38 9 -61 48 -47 78 9 20 7 27 -8 41 -17 15 -19 15 -34 -7 -44 -63 3 -158
79 -158 42 0 88 21 128 58 19 18 24 28 15 33 -9 6 -4 14 15 29 34 27 34 40 3
40 -14 0 -28 5 -31 10 -3 6 0 10 7 10 8 0 23 7 34 15 16 13 16 14 1 9 -22 -8
-63 18 -70 45 -7 28 20 63 46 59 26 -4 38 -48 13 -48 -9 0 -16 -4 -16 -10 0
-5 9 -10 20 -10 26 0 43 34 35 71 -5 24 -10 28 -29 23 -17 -4 -22 0 -23 17 -4
43 -20 42 -35 -2z"/>
<path d="M2910 695 c-13 -14 -32 -25 -42 -25 -11 0 -16 -5 -13 -10 4 -6 1 -17
-5 -25 -6 -8 -8 -20 -4 -26 5 -8 3 -9 -6 -4 -8 5 -11 4 -6 -3 10 -16 -14 -26
-28 -11 -6 8 -7 11 -2 7 19 -15 24 -8 17 20 -11 40 -36 35 -36 -8 0 -27 6 -37
28 -50 24 -13 30 -13 55 0 15 9 27 23 27 32 0 9 13 30 28 46 28 29 33 47 19
70 -6 9 -14 6 -32 -13z m-29 -110 c0 -5 -9 -11 -21 -13 -20 -3 -27 8 -13 22
10 9 34 3 34 -9z"/>
<path d="M3107 683 c-13 -13 -7 -21 13 -16 11 3 20 9 20 14 0 10 -24 12 -33 2z"/>
<path d="M3791 613 c-7 -20 -32 -56 -54 -80 -22 -24 -38 -44 -36 -46 2 -1 25
-9 52 -18 l47 -17 0 24 c0 34 18 76 46 105 l24 25 -30 22 c-16 12 -31 22 -33
22 -1 0 -9 -16 -16 -37z"/>
<path d="M3968 573 c25 -18 29 -33 7 -33 -12 0 -13 -4 -4 -19 14 -22 6 -51
-15 -51 -10 0 -12 7 -9 21 4 16 2 20 -8 17 -19 -6 -18 -38 2 -51 24 -15 68 0
81 28 14 32 -4 78 -38 94 -35 16 -43 13 -16 -6z"/>
<path d="M903 1638 c15 -5 27 -15 27 -20 0 -6 2 -9 5 -6 13 13 -9 38 -34 37
l-26 -1 28 -10z"/>
<path d="M3566 1634 c-4 -9 -4 -19 -1 -22 3 -3 5 0 5 6 0 5 12 15 28 20 l27
10 -26 1 c-16 1 -29 -6 -33 -15z"/>
</g>
</svg>
